/* XPM */
static char *nixos[] = {
/* columns rows colors chars-per-pixel */
"20 20 34 1 ",
"  c None",
". c #5177C2",
"X c #5177C3",
"o c #5277C2",
"O c #5276C3",
"+ c #5277C3",
"@ c #5377C3",
"# c #5277C4",
"$ c #5377C4",
"% c #5278C2",
"& c #5278C3",
"* c #577EC7",
"= c #587FC6",
"- c #5981C8",
"; c #5B84CA",
": c #6390CF",
"> c #6B9FD5",
", c #6CA0D6",
"< c #78B0DF",
"1 c #78AFE0",
"2 c #79B4E1",
"3 c #7BB4E0",
"4 c #7DB8E3",
"5 c #7DB9E3",
"6 c #7EBAE3",
"7 c #7FBAE3",
"8 c #7EB9E4",
"9 c #7FB9E4",
"0 c #7DBAE4",
"q c #7DBBE4",
"w c #7EBAE4",
"e c #7FBAE4",
"r c #7EBBE4",
"t c #7EBAE5",
/* pixels */
"                    ",
"     &    7   w     ",
"     &+    w w      ",
"      +    www      ",
"    +++++++;w       ",
"      1,    3w      ",
"     ww      ww ++  ",
"     w        w +   ",
"    w7        7-#   ",
" wwww:        =++++ ",
"   ww+&       +     ",
"   w  +      &+     ",
"   w  ++     +      ",
"       +>www3<ww    ",
"      #+*7wwwwww    ",
"     && ++   ww     ",
"     +   +    w     ",
"                    ",
"                    ",
"                    "
};
