/* XPM */
static char * nixos_xpm[] = {
"20 20 34 1",
" 	c None",
".	c #5278C2",
"+	c #7FBAE3",
"@	c #7FBAE4",
"#	c #5278C3",
"$	c #5276C3",
"%	c #7EBAE4",
"&	c #7EB9E4",
"*	c #5277C3",
"=	c #7EBBE4",
"-	c #5B84CA",
";	c #78AFE0",
">	c #6CA0D6",
",	c #7BB4E0",
"'	c #5177C3",
")	c #7EBAE5",
"!	c #7DB9E3",
"~	c #7EBAE3",
"{	c #5981C8",
"]	c #5377C4",
"^	c #6390CF",
"/	c #587FC6",
"(	c #7DBAE4",
"_	c #5177C2",
":	c #6B9FD5",
"<	c #79B4E1",
"[	c #78B0DF",
"}	c #5277C4",
"|	c #577EC7",
"1	c #7DB8E3",
"2	c #7DBBE4",
"3	c #5277C2",
"4	c #7FB9E4",
"5	c #5377C3",
"                    ",
"     .    +   @     ",
"     #$    % &      ",
"      *    ==%      ",
"    *******-%       ",
"      ;>    ,%      ",
"     %%      %& '*  ",
"     %        % *   ",
"    )!        ~{]   ",
" %%%%^        /**** ",
"   &(*.       *     ",
"   %  *      #*     ",
"   %  _*     *      ",
"       *:%%%<[%%    ",
"      }*|1%%2%=%    ",
"     #. 3'   %4     ",
"     5   *    %     ",
"                    ",
"                    ",
"                    "};
